<?xml version="1.0" encoding="UTF-8"?>
<svg width="128" height="128" version="1.1" viewBox="0 0 33.867 33.867" xmlns="http://www.w3.org/2000/svg">
 <g stroke="#000">
  <path d="m10.848 4.4979c1.6442-0.51276 3.4052-0.1237 5.0271-0.52917 0.9186-0.22965 5.2212-0.69667 6.0854-0.26458 0.85209 0.42605 2.9638 2.1701 3.7042 2.9104 0.29172 0.29172 0.5558 1.085 0.79375 1.3229 0.30005 0.30005 0.82647 0.44596 1.0583 0.79375 0.09784 0.14676-0.04278 0.35804 0 0.52917 0.31942 1.2777 0.12574-0.01311 0.52917 0.79375 0.14111 0.28222-0.14111 0.77611 0 1.0583 0.25495 0.5099 1.0611 1.5929 1.3229 2.1167 0.07888 0.15777-0.06551 0.36539 0 0.52917 0.1181 0.29525 0.38696 0.50933 0.52917 0.79375 0.09949 0.19899-0.12238 0.61017 0 0.79375 0.13837 0.20756 0.43652 0.29756 0.52917 0.52917 0.09826 0.24566-0.08367 0.54274 0 0.79375 0.10056 0.30167 0.41107 0.4985 0.52917 0.79375 0.17706 0.44264-0.21231 1.1629 0 1.5875 0.11156 0.22312 0.41761 0.30605 0.52917 0.52917 0.24183 0.48365 0.03834 5.631-0.26458 6.0854-0.93286 1.3993-3.1387 2.7437-4.7625 3.4396-0.99 0.42428-1.9017 0.36104-2.9104 0.52917-0.5502 0.0917-1.0373 0.43747-1.5875 0.52917-0.60068 0.10011-1.2514-0.10011-1.8521 0-0.44074-0.54149-0.80733 0.4455-1.0583 0.52917-0.32519 0.1084-7.8149 0.12907-8.2021 0-2.0943-0.6981-4.502-3.0041-5.8208-4.7625-0.38188-0.50918-0.29545-1.1201-0.52917-1.5875-0.11156-0.22312-0.43652-0.29756-0.52917-0.52917-0.098264-0.24566 0.11833-0.5571 0-0.79375-0.088195-0.17639-0.44097-0.08819-0.52917-0.26458-0.11833-0.23665 0-0.52917 0-0.79375-0.088194-0.26458-0.12109-0.5546-0.26458-0.79375-0.12834-0.2139-0.43652-0.29756-0.52917-0.52917-0.14699-0.36748 0.097994-0.93094 0-1.3229-0.31036-1.2414-0.2595-2.1421 0-3.4396 0.127-0.63499-0.23769-1.5224 0-2.1167 0.092644-0.23161 0.3908-0.32161 0.52917-0.52917 0.15404-0.23106 0.46139-1.2486 0.52917-1.5875 0.051889-0.25945-0.098264-0.54809 0-0.79375 0.092644-0.23161 0.37334-0.33438 0.52917-0.52917 1.1197 0.421 0.37896-0.83302 0.52917-1.0583 0.30202-0.45304 1.3918-1.6219 1.8521-1.8521 0.24001-0.12 0.88564-0.35647 1.0583-0.52917 0.062363-0.062363-0.062363-0.20222 0-0.26458 0.26458-0.26458 1.0583 0 1.3229-0.26458 0.062363-0.062363-0.062363-0.20222 0-0.26458 0.062363-0.062363 0.1857 0.039442 0.26458 0 0.58501-0.2925 0.082106-0.16421 0.26458-0.52917 0.25255-0.5051 0.87114-0.7195 1.3229-1.0583z" fill="#feffff"/>
  <path d="m7.1438 14.817c0.32009-0.52274 1.705 0.14703 2.1167-0.26458 0.06236-0.06236-0.07888-0.22514 0-0.26458 0.7196-0.3598 2.6122 0 3.4396 0 0.10894 0 0.72371-0.07004 0.79375 0 0.06236 0.06236-0.06236 0.20222 0 0.26458 0.12472 0.12473 0.40444-0.12473 0.52917 0 0.29814 0.29814-0.40598 0.79375 0.26458 0.79375 0.99382 0 0.77082-3.4854 0.52917-3.9688-0.10908-0.21816-1.2691-0.89914-1.5875-1.0583-0.50049-0.25024-3.0442-0.1308-3.175 0-0.06236 0.06236 0.06236 0.20222 0 0.26458-0.12472 0.12473-0.40444-0.12473-0.52917 0-0.17812 0.17812-0.13955 0.33436-0.52917 0.52917-0.15776 0.07888-0.40444-0.12473-0.52917 0-0.12472 0.12473 0.12472 0.40444 0 0.52917-0.06236 0.06236-0.20222-0.06236-0.26458 0-0.12472 0.12473 0.12472 0.40444 0 0.52917-0.06236 0.06236-0.20222-0.06236-0.26458 0-0.07767 0.07766-0.75422 2.4877-0.79375 2.6458z" fill="#fffffe"/>
  <path d="m17.727 15.346c0.32009-0.52274 1.705 0.14703 2.1167-0.26458 0.06236-0.06236-0.07888-0.22514 0-0.26458 0.7196-0.3598 2.6122 0 3.4396 0 0.10894 0 0.72371-0.07004 0.79375 0 0.06236 0.06236-0.06236 0.20222 0 0.26458 0.12472 0.12473 0.40444-0.12473 0.52917 0 0.29814 0.29814-0.40598 0.79375 0.26458 0.79375 0.99382 0 0.77082-3.4854 0.52917-3.9688-0.10908-0.21816-1.2691-0.89914-1.5875-1.0583-0.50049-0.25024-3.0442-0.1308-3.175 0-0.06236 0.06236 0.06236 0.20222 0 0.26458-0.12472 0.12473-0.40444-0.12473-0.52917 0-0.17812 0.17812-0.13955 0.33436-0.52917 0.52917-0.15776 0.07888-0.40444-0.12473-0.52917 0-0.12472 0.12473 0.12472 0.40444 0 0.52917-0.06236 0.06236-0.20222-0.06236-0.26458 0-0.12472 0.12473 0.12472 0.40444 0 0.52917-0.06236 0.06236-0.20222-0.06236-0.26458 0-0.07767 0.07766-0.75422 2.4877-0.79375 2.6458z" fill="#fff"/>
 </g>
</svg>
